<svg className="w-5 h-5 text-white" fill="none" stroke="currentColor" viewBox="0 0 24 24" xmlns="http://www.w3.org/2000/svg"><path strokeLinecap="round" strokeLinejoin="round" strokeWidth="2" d="M12 8c1.381 0 2.5 1.119 2.5 2.5s-1.119 2.5-2.5 2.5S9.5 11.881 9.5 10.5 10.619 8 12 8zM12 18c1.381 0 2.5 1.119 2.5 2.5S13.381 23 12 23s-2.5-1.119-2.5-2.5S10.619 18 12 18zM12 3c1.381 0 2.5 1.119 2.5 2.5S13.381 8 12 8s-2.5-1.119-2.5-2.5S10.619 3 12 3zM12 13c1.381 0 2.5 1.119 2.5 2.5S13.381 18 12 18s-2.5-1.119-2.5-2.5S10.619 13 12 13z"></path></svg>